<svg width="31" height="18" viewBox="0 0 31 18" fill="none" xmlns="http://www.w3.org/2000/svg">
<path d="M0.540751 14.4362C0.892879 12.0389 1.80203 9.64391 3.13073 7.63325C7.42065 1.13604 15.5353 -1.09956 22.5533 2.27417C25.3281 3.60783 27.6449 5.73832 30.3775 7.14134C30.8073 8.02928 29.8948 7.97706 29.3568 8.18895C24.7837 10.0013 21.6406 14.3463 17.2515 16.2965C12.8624 18.2466 9.09965 16.5197 5.8166 13.6353C5.53228 13.3857 4.63707 12.6225 4.47637 12.3688C4.31566 12.1152 4.43968 11.9336 4.61877 11.7308C5.23401 11.0434 6.30274 10.1152 7.01329 9.47321C11.2639 5.6217 16.3591 4.74348 21.9337 5.4753C22.1825 5.50863 23.517 5.95419 23.0445 5.22927C22.8608 4.94949 21.7598 4.92197 21.3865 4.84138C18.8214 4.29015 16.942 3.49388 14.1994 3.62884C7.74279 3.94937 5.00693 7.78528 1.75503 12.6787C1.46127 13.1219 1.12737 13.821 0.82128 14.2062C0.744355 14.301 0.676863 14.419 0.540751 14.4362Z" fill="#F3D0B8"/>
</svg>
